<?xml version="1.0" encoding="utf-8"?>
<!-- Generator: Adobe Illustrator 21.0.2, SVG Export Plug-In . SVG Version: 6.00 Build 0)  -->
<svg version="1.1" id="Calque_1" xmlns="http://www.w3.org/2000/svg" xmlns:xlink="http://www.w3.org/1999/xlink" x="0px" y="0px"
	 viewBox="0 0 100 50" style="enable-background:new 0 0 100 50;" xml:space="preserve">
<style type="text/css">
	.st0{fill:#FFFFFF;}
	.st1{fill:#F33535;}
	.st2{fill:none;}
	.st3{font-family:'BritannicBold';}
	.st4{font-size:16.6597px;}
	.st5{font-family:'Stencil';}
	.st6{font-size:14.9938px;}
	.st7{font-family:'CooperBlack';}
	.st8{font-size:8.3299px;}
</style>
<g>
	<g>
		<g>
			<g>
				<g>
					<g>
						<path d="M2.8,2.4l0.9,4.8c0.3,1.6-0.4,3.3-1.3,3.3c-0.5,0-0.9,2-1.2,2c0,0-0.1-0.1-0.1-0.2L0.5,7.8C1,5.7,1.8,3.8,2.8,2.4z"/>
					</g>
					<g>
						<path d="M0,20.9l1.4-7.7l2.3-2.8c0.2-0.2,0.5,0.1,0.4,0.5L2.9,23c-0.3,2.5-1.5,0.7-2.9,0.7l0,0V20.9z"/>
					</g>
					<g>
						<path d="M0,26.3L0,26.3c0.8,0,1.6-0.6,2.1-0.6c0.4,0,0.7,0.3,0.8,1.3l1.2,12.1c0,0.5-0.2,0.8-0.4,0.5l-2.3-2.8L0,29.2V26.3z"
							/>
					</g>
					<g>
						<path d="M2.4,39.5c0.8,0,1.4,1.2,1.4,2.5c0,0.3,0,0.5-0.1,0.8l-0.9,4.8c-1-1.4-1.8-3.2-2.3-5.4l0.6-4.5
							C1.3,36.7,1.8,39.5,2.4,39.5z"/>
					</g>
				</g>
				<g>
					<g>
						<path d="M6.6,0L8,7.2c0.3,1.6-0.4,3.3-1.3,3.3c-0.5,0-0.9,2-1.2,2c0,0-0.1-0.1-0.1-0.2L3.9,1.2C4.8,0.5,5.7,0.1,6.6,0z"/>
					</g>
					<g>
						<path d="M8.4,10.9L7.2,23c-0.3,2.5-1.5,0.7-2.9,0.7l0,0c-0.2,0-0.4-0.5-0.4-0.9l1.8-9.6L8,10.3C8.2,10.1,8.5,10.4,8.4,10.9z"
							/>
					</g>
					<g>
						<path d="M7.2,27l1.2,12.1c0,0.5-0.2,0.8-0.4,0.5l-2.3-2.8L4,27.2c-0.1-0.4,0.1-0.9,0.4-0.9l0,0C5.7,26.3,6.9,24.5,7.2,27z"/>
					</g>
					<g>
						<path d="M6.7,39.5C7.4,39.5,8,40.6,8,42c0,0.3,0,0.5-0.1,0.8L6.6,50c-1,0-1.9-0.5-2.7-1.2l1.5-11.1
							C5.6,36.7,6.1,39.5,6.7,39.5z"/>
					</g>
				</g>
				<g>
					<g>
						<path d="M11,0l1.3,7.2c0.3,1.6-0.4,3.3-1.3,3.3l0,0c-0.6,0-1.1,2.8-1.3,1.8L8.1,0L11,0z"/>
					</g>
					<g>
						<path d="M12.7,10.9L11.5,23c-0.3,2.5-1.5,0.7-2.9,0.7l0,0c-0.2,0-0.4-0.5-0.4-0.9l1.7-9.6l2.3-2.8
							C12.5,10.1,12.8,10.4,12.7,10.9z"/>
					</g>
					<g>
						<path d="M11.5,27l1.2,12.1c0,0.5-0.2,0.8-0.4,0.5L10,36.8l-1.8-9.6c-0.1-0.4,0.1-0.9,0.4-0.9l0,0C10,26.3,11.2,24.5,11.5,27z"
							/>
					</g>
					<g>
						<path d="M12.3,42.8L11,50H8.1l1.6-12.3c0.2-1,0.7,1.8,1.3,1.8l0,0C11.9,39.5,12.6,41.1,12.3,42.8z"/>
					</g>
				</g>
			</g>
			<g>
				<g>
					<g>
						<path d="M15.2,0l1.3,7.2c0.3,1.6-0.4,3.3-1.3,3.3l0,0c-0.6,0-1.1,2.8-1.3,1.8L12.4,0L15.2,0z"/>
					</g>
					<g>
						<path d="M17,10.9L15.8,23c-0.3,2.5-1.5,0.7-2.9,0.7l0,0c-0.3,0-0.4-0.5-0.4-0.9l1.7-9.6l2.3-2.8C16.8,10.1,17.1,10.4,17,10.9z
							"/>
					</g>
					<g>
						<path d="M15.8,27L17,39.1c0,0.5-0.2,0.8-0.4,0.5l-2.3-2.8l-1.7-9.6c-0.1-0.4,0.1-0.9,0.4-0.9l0,0C14.3,26.3,15.5,24.5,15.8,27
							z"/>
					</g>
					<g>
						<path d="M16.6,42.8L15.2,50h-2.9L14,37.7c0.2-1,0.7,1.8,1.3,1.8l0,0C16.2,39.5,16.9,41.1,16.6,42.8z"/>
					</g>
				</g>
				<g>
					<g>
						<path d="M19.5,0l1.3,7.2c0.3,1.6-0.4,3.3-1.3,3.3l0,0c-0.6,0-1.1,2.8-1.3,1.8L16.7,0L19.5,0z"/>
					</g>
					<g>
						<path d="M21.3,10.9L20.1,23c-0.3,2.5-1.5,0.7-2.9,0.7l0,0c-0.3,0-0.4-0.5-0.4-0.9l1.7-9.6l2.3-2.8
							C21.1,10.1,21.4,10.4,21.3,10.9z"/>
					</g>
					<g>
						<path d="M20.1,27l1.2,12.1c0,0.5-0.2,0.8-0.4,0.5l-2.3-2.8l-1.7-9.6c-0.1-0.4,0.1-0.9,0.4-0.9l0,0
							C18.6,26.3,19.8,24.5,20.1,27z"/>
					</g>
					<g>
						<path d="M20.9,42.8L19.5,50h-2.9l1.6-12.3c0.2-1,0.7,1.8,1.3,1.8l0,0C20.5,39.5,21.1,41.1,20.9,42.8z"/>
					</g>
				</g>
				<g>
					<g>
						<path d="M23.8,0l1.3,7.2c0.3,1.6-0.4,3.3-1.3,3.3l0,0c-0.6,0-1.1,2.8-1.3,1.8L21,0L23.8,0z"/>
					</g>
					<g>
						<path d="M25.6,10.9L24.4,23c-0.3,2.5-1.5,0.7-2.9,0.7l0,0c-0.3,0-0.4-0.5-0.4-0.9l1.7-9.6l2.3-2.8
							C25.4,10.1,25.7,10.4,25.6,10.9z"/>
					</g>
					<g>
						<path d="M24.4,27l1.2,12.1c0,0.5-0.2,0.8-0.4,0.5l-2.3-2.8l-1.7-9.6c-0.1-0.4,0.1-0.9,0.4-0.9l0,0
							C22.9,26.3,24.1,24.5,24.4,27z"/>
					</g>
					<g>
						<path d="M25.1,42.8L23.8,50H21l1.6-12.3c0.2-1,0.7,1.8,1.3,1.8l0,0C24.8,39.5,25.5,41.1,25.1,42.8z"/>
					</g>
				</g>
			</g>
		</g>
		<g>
			<g>
				<g>
					<g>
						<path d="M27.9,0l1.3,7.2c0.3,1.6-0.4,3.3-1.3,3.3l0,0c-0.6,0-1.1,2.8-1.3,1.8L25,0L27.9,0z"/>
					</g>
					<g>
						<path d="M29.7,10.9L28.5,23c-0.3,2.5-1.5,0.7-2.9,0.7l0,0c-0.3,0-0.4-0.5-0.4-0.9l1.7-9.6l2.3-2.8
							C29.5,10.1,29.7,10.4,29.7,10.9z"/>
					</g>
					<g>
						<path d="M28.5,27l1.2,12.1c0,0.5-0.2,0.8-0.4,0.5L27,36.8l-1.7-9.6c-0.1-0.4,0.1-0.9,0.4-0.9l0,0C26.9,26.3,28.1,24.5,28.5,27
							z"/>
					</g>
					<g>
						<path d="M29.2,42.8L27.9,50H25l1.6-12.3c0.2-1,0.7,1.8,1.3,1.8l0,0C28.9,39.5,29.5,41.1,29.2,42.8z"/>
					</g>
				</g>
				<g>
					<g>
						<path d="M32.2,0l1.3,7.2c0.3,1.6-0.4,3.3-1.3,3.3l0,0c-0.6,0-1.1,2.8-1.3,1.8L29.3,0L32.2,0z"/>
					</g>
					<g>
						<path d="M34,10.9L32.8,23c-0.3,2.5-1.5,0.7-2.9,0.7l0,0c-0.3,0-0.4-0.5-0.4-0.9l1.7-9.6l2.3-2.8C33.8,10.1,34,10.4,34,10.9z"
							/>
					</g>
					<g>
						<path d="M32.8,27L34,39.1c0,0.5-0.2,0.8-0.4,0.5l-2.3-2.8l-1.7-9.6c-0.1-0.4,0.1-0.9,0.4-0.9l0,0C31.2,26.3,32.4,24.5,32.8,27
							z"/>
					</g>
					<g>
						<path d="M33.5,42.8L32.2,50h-2.9l1.6-12.3c0.2-1,0.7,1.8,1.3,1.8l0,0C33.1,39.5,33.8,41.1,33.5,42.8z"/>
					</g>
				</g>
				<g>
					<g>
						<path d="M36.5,0l1.3,7.2c0.3,1.6-0.4,3.3-1.3,3.3l0,0c-0.6,0-1.1,2.8-1.3,1.8L33.6,0L36.5,0z"/>
					</g>
					<g>
						<path d="M38.3,10.9L37.1,23c-0.3,2.5-1.5,0.7-2.9,0.7l0,0c-0.3,0-0.4-0.5-0.4-0.9l1.8-9.6l2.3-2.8
							C38.1,10.1,38.3,10.4,38.3,10.9z"/>
					</g>
					<g>
						<path d="M37.1,27l1.2,12.1c0,0.5-0.2,0.8-0.4,0.5l-2.3-2.8l-1.7-9.6c-0.1-0.4,0.1-0.9,0.4-0.9l0,0
							C35.5,26.3,36.7,24.5,37.1,27z"/>
					</g>
					<g>
						<path d="M37.8,42.8L36.5,50h-2.9l1.6-12.3c0.2-1,0.7,1.8,1.3,1.8l0,0C37.5,39.5,38.1,41.1,37.8,42.8z"/>
					</g>
				</g>
			</g>
			<g>
				<g>
					<g>
						<path d="M40.8,0l1.3,7.2c0.3,1.6-0.4,3.3-1.3,3.3l0,0c-0.6,0-1.1,2.8-1.3,1.8L37.9,0L40.8,0z"/>
					</g>
					<g>
						<path d="M42.6,10.9L41.4,23c-0.3,2.5-1.5,0.7-2.9,0.7l0,0c-0.3,0-0.4-0.5-0.4-0.9l1.8-9.6l2.3-2.8
							C42.4,10.1,42.6,10.4,42.6,10.9z"/>
					</g>
					<g>
						<path d="M41.4,27l1.2,12.1c0,0.5-0.2,0.8-0.4,0.5l-2.3-2.8l-1.7-9.6c-0.1-0.4,0.1-0.9,0.4-0.9l0,0C39.8,26.3,41,24.5,41.4,27z
							"/>
					</g>
					<g>
						<path d="M42.1,42.8L40.8,50h-2.9l1.6-12.3c0.2-1,0.7,1.8,1.3,1.8l0,0C41.8,39.5,42.4,41.1,42.1,42.8z"/>
					</g>
				</g>
				<g>
					<g>
						<path d="M45.1,0l1.3,7.2c0.3,1.6-0.4,3.3-1.3,3.3l0,0c-0.6,0-1.1,2.8-1.3,1.8L42.2,0L45.1,0z"/>
					</g>
					<g>
						<path d="M46.9,10.9L45.7,23c-0.3,2.5-1.5,0.7-2.9,0.7l0,0c-0.3,0-0.4-0.5-0.4-0.9l1.8-9.6l2.3-2.8
							C46.6,10.1,46.9,10.4,46.9,10.9z"/>
					</g>
					<g>
						<path d="M45.7,27l1.2,12.1c0,0.5-0.2,0.8-0.4,0.5l-2.3-2.8l-1.8-9.6c-0.1-0.4,0.1-0.9,0.4-0.9l0,0
							C44.1,26.3,45.3,24.5,45.7,27z"/>
					</g>
					<g>
						<path d="M46.4,42.8L45.1,50h-2.9l1.6-12.3c0.2-1,0.7,1.8,1.3,1.8l0,0C46,39.5,46.7,41.1,46.4,42.8z"/>
					</g>
				</g>
				<g>
					<g>
						<path d="M49.4,0l1.3,7.2c0.3,1.6-0.4,3.3-1.3,3.3l0,0c-0.6,0-1.1,2.8-1.3,1.8L46.5,0L49.4,0z"/>
					</g>
					<g>
						<path d="M51.2,10.9L50,23c-0.3,2.5-1.5,0.7-2.9,0.7l0,0c-0.3,0-0.4-0.5-0.4-0.9l1.8-9.6l2.3-2.8
							C50.9,10.1,51.2,10.4,51.2,10.9z"/>
					</g>
					<g>
						<path d="M50,27l1.2,12.1c0,0.5-0.2,0.8-0.4,0.5l-2.3-2.8l-1.7-9.6c-0.1-0.4,0.1-0.9,0.4-0.9l0,0C48.4,26.3,49.6,24.5,50,27z"
							/>
					</g>
					<g>
						<path d="M50.7,42.8L49.4,50h-2.9l1.6-12.3c0.2-1,0.7,1.8,1.3,1.8l0,0C50.3,39.5,51,41.1,50.7,42.8z"/>
					</g>
				</g>
			</g>
		</g>
	</g>
	<g>
		<g>
			<g>
				<g>
					<g>
						<path d="M53.8,0l1.3,7.2c0.3,1.6-0.4,3.3-1.3,3.3l0,0c-0.6,0-1.1,2.8-1.3,1.8L50.9,0L53.8,0z"/>
					</g>
					<g>
						<path d="M55.6,10.9L54.4,23c-0.3,2.5-1.5,0.7-2.9,0.7l0,0c-0.3,0-0.4-0.5-0.4-0.9l1.7-9.6l2.3-2.8
							C55.4,10.1,55.6,10.4,55.6,10.9z"/>
					</g>
					<g>
						<path d="M54.4,27l1.2,12.1c0,0.5-0.2,0.8-0.4,0.5l-2.3-2.8l-1.8-9.6c-0.1-0.4,0.1-0.9,0.4-0.9l0,0C52.8,26.3,54,24.6,54.4,27z
							"/>
					</g>
					<g>
						<path d="M55.1,42.8L53.8,50h-2.9l1.6-12.3c0.2-1,0.7,1.8,1.3,1.8l0,0C54.7,39.5,55.4,41.1,55.1,42.8z"/>
					</g>
				</g>
				<g>
					<g>
						<path d="M58.1,0l1.3,7.2c0.3,1.6-0.4,3.3-1.3,3.3l0,0c-0.6,0-1.1,2.8-1.3,1.8L55.2,0L58.1,0z"/>
					</g>
					<g>
						<path d="M59.9,10.9L58.7,23c-0.3,2.5-1.5,0.7-2.9,0.7l0,0c-0.3,0-0.4-0.5-0.4-0.9l1.7-9.6l2.3-2.8
							C59.7,10.1,59.9,10.4,59.9,10.9z"/>
					</g>
					<g>
						<path d="M58.7,27l1.2,12.1c0,0.5-0.2,0.8-0.4,0.5l-2.3-2.8l-1.8-9.6c-0.1-0.4,0.1-0.9,0.4-0.9l0,0
							C57.1,26.3,58.3,24.6,58.7,27z"/>
					</g>
					<g>
						<path d="M59.4,42.8L58.1,50h-2.9l1.6-12.3c0.2-1,0.7,1.8,1.3,1.8l0,0C59.1,39.5,59.7,41.1,59.4,42.8z"/>
					</g>
				</g>
				<g>
					<g>
						<path d="M62.4,0l1.3,7.2c0.3,1.6-0.4,3.3-1.3,3.3l0,0c-0.6,0-1.1,2.8-1.3,1.8L59.5,0L62.4,0z"/>
					</g>
					<g>
						<path d="M64.2,10.9L63,23c-0.3,2.5-1.5,0.7-2.9,0.7l0,0c-0.3,0-0.4-0.5-0.4-0.9l1.7-9.6l2.3-2.8C64,10.1,64.2,10.4,64.2,10.9z
							"/>
					</g>
					<g>
						<path d="M63,27l1.2,12.1c0,0.5-0.2,0.8-0.4,0.5l-2.3-2.8l-1.8-9.6c-0.1-0.4,0.1-0.9,0.4-0.9l0,0C61.4,26.3,62.6,24.6,63,27z"
							/>
					</g>
					<g>
						<path d="M63.7,42.8L62.4,50h-2.9l1.6-12.3c0.2-1,0.7,1.8,1.3,1.8l0,0C63.4,39.5,64,41.1,63.7,42.8z"/>
					</g>
				</g>
			</g>
			<g>
				<g>
					<g>
						<path d="M66.7,0L68,7.2c0.3,1.6-0.4,3.3-1.3,3.3l0,0c-0.6,0-1.1,2.8-1.3,1.8L63.8,0L66.7,0z"/>
					</g>
					<g>
						<path d="M68.5,10.9L67.3,23c-0.3,2.5-1.5,0.7-2.9,0.7l0,0c-0.3,0-0.4-0.5-0.4-0.9l1.8-9.6l2.3-2.8
							C68.3,10.1,68.5,10.4,68.5,10.9z"/>
					</g>
					<g>
						<path d="M67.3,27l1.2,12.1c0,0.5-0.2,0.8-0.4,0.5l-2.3-2.8L64,27.2c-0.1-0.4,0.1-0.9,0.4-0.9l0,0C65.7,26.3,66.9,24.6,67.3,27
							z"/>
					</g>
					<g>
						<path d="M68,42.8L66.7,50h-2.9l1.6-12.3c0.2-1,0.7,1.8,1.3,1.8l0,0C67.6,39.5,68.3,41.1,68,42.8z"/>
					</g>
				</g>
				<g>
					<g>
						<path d="M71,0l1.3,7.2c0.3,1.6-0.4,3.3-1.3,3.3l0,0c-0.6,0-1.1,2.8-1.3,1.8L68.1,0L71,0z"/>
					</g>
					<g>
						<path d="M72.8,10.9L71.6,23c-0.3,2.5-1.5,0.7-2.9,0.7l0,0c-0.3,0-0.4-0.5-0.4-0.9l1.8-9.6l2.3-2.8
							C72.6,10.1,72.8,10.5,72.8,10.9z"/>
					</g>
					<g>
						<path d="M71.6,27l1.2,12.1c0,0.5-0.2,0.8-0.4,0.5L70,36.9l-1.8-9.6c-0.1-0.4,0.1-0.9,0.4-0.9l0,0C70,26.3,71.2,24.6,71.6,27z"
							/>
					</g>
					<g>
						<path d="M72.3,42.8L71,50h-2.9l1.6-12.3c0.2-1,0.7,1.8,1.3,1.8l0,0C72,39.5,72.6,41.1,72.3,42.8z"/>
					</g>
				</g>
				<g>
					<g>
						<path d="M75.3,0l1.3,7.2c0.3,1.6-0.4,3.3-1.3,3.3l0,0c-0.6,0-1.1,2.8-1.3,1.8L72.4,0L75.3,0z"/>
					</g>
					<g>
						<path d="M77.1,10.9L75.9,23c-0.3,2.5-1.5,0.7-2.9,0.7l0,0c-0.3,0-0.4-0.5-0.4-0.9l1.8-9.6l2.3-2.8
							C76.9,10.1,77.1,10.5,77.1,10.9z"/>
					</g>
					<g>
						<path d="M75.9,27l1.2,12.1c0,0.5-0.2,0.8-0.4,0.5l-2.3-2.8l-1.8-9.6c-0.1-0.4,0.1-0.9,0.4-0.9l0,0
							C74.3,26.3,75.5,24.6,75.9,27z"/>
					</g>
					<g>
						<path d="M76.6,42.8L75.3,50h-2.9L74,37.7c0.2-1,0.7,1.8,1.3,1.8l0,0C76.3,39.5,76.9,41.1,76.6,42.8z"/>
					</g>
				</g>
			</g>
		</g>
		<g>
			<g>
				<g>
					<g>
						<path d="M79.4,0l1.3,7.2c0.3,1.6-0.4,3.3-1.3,3.3l0,0c-0.6,0-1.1,2.8-1.3,1.8L76.5,0L79.4,0z"/>
					</g>
					<g>
						<path d="M81.1,10.9L79.9,23c-0.3,2.5-1.5,0.7-2.9,0.7l0,0c-0.3,0-0.4-0.5-0.4-0.9l1.8-9.6l2.3-2.8
							C80.9,10.1,81.2,10.5,81.1,10.9z"/>
					</g>
					<g>
						<path d="M79.9,27l1.2,12.1c0,0.5-0.2,0.8-0.4,0.5l-2.3-2.8l-1.8-9.6c-0.1-0.4,0.1-0.9,0.4-0.9l0,0
							C78.4,26.3,79.6,24.6,79.9,27z"/>
					</g>
					<g>
						<path d="M80.7,42.8L79.4,50h-2.9l1.6-12.3c0.2-1,0.7,1.8,1.3,1.8l0,0C80.3,39.5,81,41.1,80.7,42.8z"/>
					</g>
				</g>
				<g>
					<g>
						<path d="M83.6,0L85,7.3c0.3,1.6-0.4,3.3-1.3,3.3l0,0c-0.6,0-1.1,2.8-1.3,1.8L80.8,0L83.6,0z"/>
					</g>
					<g>
						<path d="M85.4,10.9L84.2,23c-0.3,2.5-1.5,0.7-2.9,0.7l0,0c-0.3,0-0.4-0.5-0.4-0.9l1.8-9.6l2.3-2.8
							C85.2,10.1,85.5,10.5,85.4,10.9z"/>
					</g>
					<g>
						<path d="M84.2,27l1.2,12.1c0,0.5-0.2,0.8-0.4,0.5l-2.3-2.8L81,27.2c-0.1-0.4,0.1-0.9,0.4-0.9l0,0C82.7,26.3,83.9,24.6,84.2,27
							z"/>
					</g>
					<g>
						<path d="M85,42.8L83.6,50h-2.9l1.6-12.3c0.2-1,0.7,1.8,1.3,1.8l0,0C84.6,39.5,85.3,41.1,85,42.8z"/>
					</g>
				</g>
				<g>
					<g>
						<path d="M88,0l1.3,7.2c0.3,1.6-0.4,3.3-1.3,3.3l0,0c-0.6,0-1.1,2.8-1.3,1.8L85.1,0L88,0z"/>
					</g>
					<g>
						<path d="M89.8,10.9L88.5,23c-0.3,2.5-1.5,0.7-2.9,0.7l0,0c-0.3,0-0.4-0.5-0.4-0.9l1.8-9.6l2.3-2.8
							C89.5,10.1,89.8,10.5,89.8,10.9z"/>
					</g>
					<g>
						<path d="M88.5,27l1.2,12.1c0,0.5-0.2,0.8-0.4,0.5L87,36.9l-1.7-9.6c-0.1-0.4,0.1-0.9,0.4-0.9l0,0C87,26.3,88.2,24.6,88.5,27z"
							/>
					</g>
					<g>
						<path d="M89.3,42.8L88,50h-2.9l1.6-12.3c0.2-1,0.7,1.8,1.3,1.8l0,0C88.9,39.5,89.6,41.1,89.3,42.8z"/>
					</g>
				</g>
			</g>
			<g>
				<g>
					<g>
						<path d="M92.3,0l1.3,7.2c0.3,1.6-0.4,3.3-1.3,3.3l0,0c-0.6,0-1.1,2.8-1.3,1.8L89.4,0L92.3,0z"/>
					</g>
					<g>
						<path d="M94,10.9L92.8,23c-0.3,2.5-1.5,0.7-2.9,0.7l0,0c-0.3,0-0.4-0.5-0.4-0.9l1.8-9.6l2.3-2.8C93.8,10.1,94.1,10.5,94,10.9z
							"/>
					</g>
					<g>
						<path d="M92.8,27L94,39.1c0,0.5-0.2,0.8-0.4,0.5l-2.3-2.8l-1.8-9.6c-0.1-0.4,0.1-0.9,0.4-0.9l0,0C91.3,26.3,92.5,24.6,92.8,27
							z"/>
					</g>
					<g>
						<path d="M93.6,42.8L92.3,50h-2.9L91,37.7c0.2-1,0.7,1.8,1.3,1.8l0,0C93.2,39.5,93.9,41.1,93.6,42.8z"/>
					</g>
				</g>
				<g>
					<g>
						<path d="M93.7,0.1c1.2,0.2,2.3,0.9,3.2,2l0.9,5.2c0.3,1.6-0.4,3.3-1.3,3.3c-0.5,0-0.9,2-1.2,2c0,0-0.1-0.1-0.1-0.2L93.7,0.1z"
							/>
					</g>
					<g>
						<path d="M98.3,10.9L97.1,23c-0.3,2.5-1.5,0.7-2.9,0.7l0,0c-0.3,0-0.4-0.5-0.4-0.9l1.8-9.6l2.3-2.8
							C98.1,10.1,98.4,10.5,98.3,10.9z"/>
					</g>
					<g>
						<path d="M97.1,27l1.2,12.1c0,0.5-0.2,0.8-0.4,0.5l-2.3-2.8l-1.8-9.6c-0.1-0.4,0.1-0.9,0.4-0.9l0,0
							C95.6,26.3,96.8,24.6,97.1,27z"/>
					</g>
					<g>
						<path d="M96.6,39.5c0.8,0,1.4,1.2,1.4,2.5c0,0.3,0,0.5-0.1,0.8L96.9,48c-0.9,1.1-2,1.9-3.2,2l1.6-12.3
							C95.5,36.7,96,39.5,96.6,39.5z"/>
					</g>
				</g>
				<g>
					<g>
						<path d="M98.6,5c0.8,2,1.3,4.4,1.4,7l0,0c-0.1,0.3-0.2,0.5-0.3,0.5c0,0-0.1-0.1-0.1-0.2L98.6,5z"/>
					</g>
					<g>
						<path d="M100,13.1v11.1c-0.4-0.2-1-0.5-1.5-0.5c-0.2,0-0.4-0.3-0.4-0.7c0-0.1,0-0.1,0-0.2l1.8-9.6L100,13.1z"/>
					</g>
					<g>
						<path d="M100,25.9V37l-0.1-0.1l-1.8-9.6c-0.1-0.4,0.1-0.9,0.4-0.9C99,26.3,99.6,26.1,100,25.9z"/>
					</g>
					<g>
						<path d="M100,38L100,38c-0.1,2.6-0.6,5-1.4,7l1-7.3C99.7,37.2,99.8,37.5,100,38z"/>
					</g>
				</g>
			</g>
		</g>
	</g>
</g>
<g>
	<path class="st0" d="M27,49C26.5,49,26,48.5,26,48V2c0-0.5,0.4-0.9,0.9-0.9h46C73.5,1.1,74,1.5,74,2v46c0,0.5-0.4,0.9-0.9,0.9H27z"
		/>
	<path class="st1" d="M72.9,2.1v45.8H27.1V2.1H72.9 M73,0H27c-1.1,0-2,0.9-2,2v46c0,1.1,0.9,2,2,2h46c1.1,0,2-0.9,2-2V2
		C75,0.9,74.1,0,73,0L73,0z"/>
</g>
<rect x="31.3" y="6.3" class="st2" width="37.5" height="12.5"/>
<text transform="matrix(1.0004 0 0 1 34.7409 17.5508)" class="st3 st4">PUB</text>
<path d="M67.5,27.1H32.6c-0.7,0-1.3-0.6-1.3-1.3v-1.6c0-0.7,0.6-1.3,1.3-1.3h34.9c0.7,0,1.3,0.6,1.3,1.3v1.6
	C68.8,26.5,68.2,27.1,67.5,27.1z"/>
<rect x="31.3" y="31.3" class="st2" width="37.5" height="12.5"/>
<text transform="matrix(1.0004 0 0 1 31.528 41.2578)" class="st5 st6">Cars</text>
<rect x="43.2" y="22.2" class="st2" width="13.6" height="5.6"/>
<text transform="matrix(1.0004 0 0 1 43.2038 27.7588)" class="st0 st7 st8">ON</text>
</svg>
